<svg xmlns="http://www.w3.org/2000/svg" version="1.1" xmlns:xlink="http://www.w3.org/1999/xlink" xmlns:svgjs="http://svgjs.dev/svgjs" width="100%" height="100%" viewBox="0 0 1000 600"><rect width="1000" height="600" x="0" y="0" fill="#ffffff"/><g><rect width="333.3333333333333" height="333.3333333333333" rx="13.333333333333334" ry="13.333333333333334" y="236.8530431249688" fill="#000000" transform="matrix(0.5823953930097766,0,0,0.5823953930097765,0,64.99198299092564)" x="214.6308135986328"/><path d="M313.10010424853317 344.06449045471004L273.39673870486047 344.06449045471004L273.39673870486047 394.17858044050956Q277.5039834162749 394.17858044050956 290.3961682048813 394.37823816953664Q303.28835299348765 394.5778958985637 310.3048960421539 394.5778958985637L310.3048960421539 394.5778958985637Q329.4435154960364 394.5778958985637 336.9734641336295 388.21737110241503Q344.5034127712226 381.8568463062663 344.5034127712226 368.0234179379608L344.5034127712226 368.0234179379608Q344.5034127712226 355.8728190000265 337.2872119935292 349.96865472736823Q330.04248868311765 344.06449045471004 313.10010424853317 344.06449045471004L313.10010424853317 344.06449045471004ZM344.1896649113229 426.1808621502802L368.46234025447336 478.5197096880959L348.41099975360993 478.5197096880959L327.9603437946923 431.99945882478397Q319.63176424099083 413.23163229623754 317.32143909082026 409.43813544472283L317.32143909082026 409.43813544472283Q309.9911481822542 409.92301850093145 299.9797391981816 409.92301850093145L299.9797391981816 409.92301850093145L273.39673870486047 409.1243875848231L273.39673870486047 478.5197096880959L255.65572335416766 478.5197096880959L255.65572335416766 328.5197101233152L303.08869526446057 328.5197101233152Q311.3031846872894 328.5197101233152 317.6066644180018 328.91902558136934Q323.9386666814323 329.3183410394235 330.21362387942656 330.3736747499953Q336.4600585447027 331.42900846056705 341.0807088450439 333.28297308724717Q345.70135914538514 335.1369377139273 349.6945137259269 338.07475858389734Q353.7161908391869 341.0411019865855 356.16912865294825 345.14834669799995Q358.62206646670967 349.25559140941436 360.04819310261746 354.9315754203273Q361.445797205807 360.6075594312403 361.445797205807 367.7096700780611L361.445797205807 367.7096700780611Q361.445797205807 381.74275617539365 354.05846123180476 391.86825529033894Q346.6996477905206 402.02227693800234 333.15144474939666 405.92986392038966L333.15144474939666 405.92986392038966Q333.15144474939666 406.1295216494168 335.1765445723857 409.5237030428773Q337.17312186265656 412.94640696905594 339.9398075363177 417.9093276620151Q342.67797067726065 422.87224835497415 344.1896649113229 426.1808621502802L344.1896649113229 426.1808621502802ZM506.93923660111915 330.20253955368634L506.93923660111915 478.5197096880959L489.5975367084805 478.5197096880959L489.5975367084805 409.1243875848231L409.9626253593899 409.1243875848231L409.9626253593899 478.5197096880959L392.6209254667512 478.5197096880959L392.6209254667512 330.20253955368634L409.9626253593899 330.20253955368634L409.9626253593899 393.89335511332797L489.5975367084805 393.89335511332797L489.5975367084805 330.20253955368634L506.93923660111915 330.20253955368634Z " fill="#ffffff" transform="matrix(0.5823953930097766,0,0,0.5823953930097765,0,64.99198299092564)"/><path d="M673.6321260847027 342.708329360002L644.3720366488694 342.708329360002L644.3720366488694 379.64078420106443Q647.3989424525764 379.64078420106443 656.9000634475452 379.7879254554113Q666.401184442514 379.9350667097582 671.5721485238466 379.9350667097582L671.5721485238466 379.9350667097582Q685.6766887619531 379.9350667097582 691.226016068749 375.247566749851Q696.7753433755449 370.5600667899438 696.7753433755449 360.36527988162544L696.7753433755449 360.36527988162544Q696.7753433755449 351.41068354565925 691.4572380398655 347.0595064528306Q686.1181125249936 342.708329360002 673.6321260847027 342.708329360002L673.6321260847027 342.708329360002ZM696.5441214044284 403.22542525494725L714.4322938971684 441.79745407301766L699.655107924905 441.79745407301766L684.5836394439477 407.5135418101987Q678.4457471197643 393.6822639015936 676.7431126051792 390.88658006900323L676.7431126051792 390.88658006900323Q671.3409265527301 391.2439231152742 663.9628436561945 391.2439231152742L663.9628436561945 391.2439231152742L644.3720366488694 390.65535809788673L644.3720366488694 441.79745407301766L631.2974851911911 441.79745407301766L631.2974851911911 331.2523317001391L666.2540431881672 331.2523317001391Q672.307854795581 331.2523317001391 676.9533143971033 331.54661420883286Q681.6197941778181 331.84089671752656 686.244233600148 332.6186433476457Q690.8476528432857 333.39638997776484 694.2529218724559 334.7627016252714Q697.6581909016261 336.12901327277797 700.6010159885634 338.2940917295961Q703.564861254693 340.48019036560663 705.3725966652402 343.5070961693135Q707.1803320757874 346.5340019730204 708.2313410354078 350.71701763230976Q709.2613298158358 354.90003329159913 709.2613298158358 360.134057910509L709.2613298158358 360.134057910509Q709.2613298158358 370.47598607317417 703.817103405002 377.93814968647933Q698.3938971733604 385.4213334789769 688.4093120569662 388.3010980283369L688.4093120569662 388.3010980283369Q688.4093120569662 388.4482392826838 689.9017447796273 390.94964060658043Q691.3731573230958 393.47206210966954 693.4121147047595 397.12957328914865Q695.4300519072308 400.7870844686278 696.5441214044284 403.22542525494725L696.5441214044284 403.22542525494725ZM753.3826859407021 433.5155034712085L753.3826859407021 433.5155034712085Q762.1691208431291 433.5155034712085 768.8535378263151 428.68086225695447Q775.5379548095011 423.84622104270045 777.4718112952028 415.62733097846854L777.4718112952028 415.62733097846854L777.4718112952028 401.96421450340273Q777.0934480697395 401.96421450340273 772.9945131272196 402.3425777288661Q768.8955781847 402.69992077513706 767.6343674331554 402.7840014919067L767.6343674331554 402.7840014919067Q751.5959707093474 404.1923534977981 745.2899169516247 408.0180261108165Q738.9628430147096 411.8647189030273 738.9628430147096 420.3568712967606L738.9628430147096 420.3568712967606Q738.9628430147096 426.87312684640733 742.8095358069205 430.1943151588079Q746.6562285991313 433.5155034712085 753.3826859407021 433.5155034712085ZM789.8106564811468 441.79745407301766L780.2044345902159 441.79745407301766Q779.0903650930182 437.0679137547256 778.0603763125903 431.6026671646993L778.0603763125903 431.6026671646993Q771.3339189710193 438.32912450627015 765.4272486179525 440.91460654693645Q759.4995580856931 443.50008858760276 751.5329101717701 443.50008858760276L751.5329101717701 443.50008858760276Q740.1399730494845 443.50008858760276 733.2453542743744 437.55137787615104Q726.329715320072 431.6026671646993 726.329715320072 420.4409520135302L726.329715320072 420.4409520135302Q726.329715320072 408.0180261108165 735.7467555982711 402.04829522017235Q745.1637958764703 396.05754415033584 762.9048271148633 394.5861316068672L762.9048271148633 394.5861316068672Q765.3431679011828 394.3549096357507 770.2618898322065 393.95552623109495Q775.1806117632302 393.53512264724674 777.6189525495497 393.32492085532266L777.6189525495497 393.32492085532266L777.6189525495497 386.1570397507112Q777.6189525495497 377.5808066402084 773.6251185029919 373.4398313393038Q769.6312844564343 369.29885603839926 761.0550513459315 369.29885603839926L761.0550513459315 369.29885603839926Q749.0945693854508 369.29885603839926 736.9028654538536 375.20552639146615L736.9028654538536 375.20552639146615Q736.5245022283902 374.322678865385 734.9690089681519 370.0766026685184Q733.4135157079137 365.8305264716518 733.3504551703364 365.68338521730493L733.3504551703364 365.68338521730493Q738.7526412227855 362.65647941359805 746.1727644777059 360.8487440030509Q753.5928877326263 359.0199884133113 761.286273317048 359.0199884133113L761.286273317048 359.0199884133113Q776.4208023355823 359.0199884133113 783.1262394979608 365.6413448589201Q789.8106564811468 372.26270130452895 789.8106564811468 388.15395677399005L789.8106564811468 388.15395677399005L789.8106564811468 441.79745407301766ZM832.8179431088155 441.2088890556302L800.7411496611994 360.7226229278964L813.8157011188778 360.7226229278964L839.3972591960395 428.19739813552906L862.1621132614183 360.7226229278964L875.2366647190967 360.7226229278964Q842.4241649997464 451.0253127384851 841.3100955025486 453.84201675026793L841.3100955025486 453.84201675026793Q836.2232121379857 466.6222856992526 828.9712503166047 472.5709964107043Q821.7403086744159 478.51970712215603 809.9059477890897 478.51970712215603L809.9059477890897 478.51970712215603Q806.3535375055726 478.51970712215603 802.4437841757846 477.9311421047686L802.4437841757846 477.9311421047686L801.7080779040502 467.44207268775654Q805.8490532049548 467.7363551964503 807.9090307658109 467.7363551964503L807.9090307658109 467.7363551964503Q816.2540419051973 467.7363551964503 820.5841988188336 464.66740903435857Q824.9143557324697 461.59846287226685 828.2986045824475 453.16937101611086L828.2986045824475 453.16937101611086Q831.3465305653468 445.412924894112 832.8179431088155 441.2088890556302L832.8179431088155 441.2088890556302ZM1001.9042645325528 441.79745407301766L989.5654193466089 441.79745407301766L989.5654193466089 399.6099544338529Q989.5654193466089 393.6822639015936 989.2921570171075 389.6884298550359Q989.0399148667987 385.7156159876706 988.1150269823326 381.5746406867661Q987.1901390978667 377.4336653858615 985.5295449416662 375.0373649579269Q983.868950785466 372.6200443507999 980.9051055193363 371.1065914489464Q977.9622804323991 369.59313854709296 973.8213051314946 369.59313854709296L973.8213051314946 369.59313854709296Q965.6864957840323 369.59313854709296 959.969007043697 373.96533581911405Q954.2304981241693 378.3165129119427 951.79215733785 386.22010028828845L951.79215733785 386.22010028828845Q951.1195116036929 391.5382056239679 951.1195116036929 397.61303741057407L951.1195116036929 397.61303741057407L951.1195116036929 441.79745407301766L938.7806664177489 441.79745407301766L938.7806664177489 398.2646629655388Q938.7806664177489 392.79941637551246 938.4233233714779 388.78456214976234Q938.0449601460145 384.7486877448198 937.0149713655866 380.9440353109938Q935.9849825851585 377.1393828771678 934.2403077121885 374.7641026284256Q932.4956328392186 372.40984255887577 929.6158682898586 371.00149055298436Q926.7361037404985 369.59313854709296 922.7422696939409 369.59313854709296L922.7422696939409 369.59313854709296Q913.8927742539368 369.59313854709296 907.8599828257154 374.1124770734609Q901.8482115766864 378.6107954206364 899.7672138366379 386.0729590339416L899.7672138366379 386.0729590339416Q899.0945681024808 391.7694275950844 899.0945681024808 398.41180421988565L899.0945681024808 398.41180421988565L899.0945681024808 441.79745407301766L886.7557229165368 441.79745407301766Q886.6085816621899 365.74644575488213 886.6085816621899 360.7226229278964L886.6085816621899 360.7226229278964L896.9505098248551 360.7226229278964L898.5060030850934 372.32576184210615Q902.2055546229574 366.71337399773296 909.0160926812978 362.8666812055221Q915.805610560446 359.0199884133113 924.4449042085259 359.0199884133113L924.4449042085259 359.0199884133113Q928.9642427348939 359.0199884133113 932.7688951687198 359.9448762977773Q936.5735476025459 360.8697641822433 939.1169892848275 362.2781161881347Q941.6604309671088 363.6864681940261 943.6573479903877 365.6413448589201Q945.6542650136666 367.59622152381417 946.7683345108642 369.4880376511309Q947.8824040080619 371.37985377844774 948.6181102797962 373.4398313393038L948.6181102797962 373.4398313393038Q957.4886258989927 359.0199884133113 975.7341414380037 359.0199884133113L975.7341414380037 359.0199884133113Q989.2501166587226 359.0199884133113 995.5771905956377 366.7554143561178Q1001.9042645325528 374.4698201197319 1001.9042645325528 389.6253693174587L1001.9042645325528 389.6253693174587L1001.9042645325528 441.79745407301766ZM1026.6450154420181 401.43871002359253L1026.6450154420181 401.43871002359253Q1026.6450154420181 415.85855294958503 1033.0351499165104 424.53988695604994Q1039.4463045701953 433.2212209625148 1051.7010690393695 433.2212209625148L1051.7010690393695 433.2212209625148Q1063.8297124333894 433.2212209625148 1069.9886249367655 424.5819273144347Q1076.1685576193336 415.94263366635465 1076.1685576193336 401.29156876924566L1076.1685576193336 401.29156876924566Q1076.1685576193336 386.45132225940495 1070.072705653535 377.9171295072869Q1063.9768536877364 369.3829367551689 1051.4908672474455 369.3829367551689L1051.4908672474455 369.3829367551689Q1039.3622238534256 369.3829367551689 1033.014129737318 378.10631112001863Q1026.6450154420181 386.8086653056759 1026.6450154420181 401.43871002359253ZM1088.948826568318 401.2285082316684L1088.948826568318 401.2285082316684Q1088.948826568318 420.0625887880668 1078.9011809143467 431.791848777431Q1068.8535352603753 443.50008858760276 1051.1125040219822 443.50008858760276L1051.1125040219822 443.50008858760276Q1034.044118517746 443.50008858760276 1023.9544325053898 431.6657277022765Q1013.8647464930335 419.85238699614274 1013.8647464930335 401.29156876924566L1013.8647464930335 401.29156876924566Q1013.8647464930335 382.3734074960776 1023.9964728637747 370.70720804429067Q1034.1071790553233 359.0199884133113 1051.7851497561392 359.0199884133113L1051.7851497561392 359.0199884133113Q1069.147817769069 359.0199884133113 1079.0483221686936 370.7492484026755Q1088.948826568318 382.45748821284724 1088.948826568318 401.2285082316684ZM1118.8815617383084 441.79745407301766L1106.3955752980175 441.79745407301766L1106.3955752980175 360.7226229278964L1116.7375034606828 360.7226229278964L1118.292996720921 372.32576184210615Q1123.0855975767904 366.356030951462 1130.2955190397865 362.69851977198283Q1137.505440502783 359.0199884133113 1145.8504516421692 359.0199884133113L1145.8504516421692 359.0199884133113Q1159.8919313426982 359.0199884133113 1166.6183886842691 366.9025556104646Q1173.34484602584 374.7641026284256 1173.34484602584 391.0967818609273L1173.34484602584 391.0967818609273L1173.34484602584 441.79745407301766L1161.006000839896 441.79745407301766Q1161.006000839896 393.03063834662896 1160.9219201231263 389.5412886006891L1160.9219201231263 389.5412886006891Q1160.6276376144326 379.19936043802386 1156.7599246430295 374.4067595821546Q1152.8711914924338 369.59313854709296 1143.790474081313 369.59313854709296L1143.790474081313 369.59313854709296Q1134.2473127279595 369.59313854709296 1127.899218611852 374.1755376110381Q1121.530104316552 378.7579366749833 1119.6172680100428 386.0729590339416L1119.6172680100428 386.0729590339416Q1118.8815617383084 391.0337213233501 1118.8815617383084 397.4658961562272L1118.8815617383084 397.4658961562272L1118.8815617383084 441.79745407301766ZM1225.516930781399 432.86387791624384L1225.516930781399 432.86387791624384Q1237.7086347129962 432.86387791624384 1243.6573454244478 425.0233510774753Q1249.6060561358995 417.18282423870676 1249.6060561358995 402.63686023755986L1249.6060561358995 402.63686023755986Q1249.6060561358995 386.22010028828845 1243.8885673955645 377.9171295072869Q1238.1500584760367 369.59313854709296 1225.369789527052 369.59313854709296L1225.369789527052 369.59313854709296Q1219.6733209659092 369.59313854709296 1215.3221438730807 372.03147933341245Q1210.9499466010598 374.4698201197319 1208.301404022816 378.8420173917529Q1205.63184126538 383.19319448458157 1204.2655296178737 388.84762268733954Q1202.8992179703669 394.50205089009756 1202.8992179703669 401.2285082316684L1202.8992179703669 401.2285082316684Q1202.8992179703669 410.6875888682524 1205.2324578607245 417.6242480017474Q1207.5656977510816 424.5819273144347 1212.7366618324143 428.7229026153393Q1217.9076259137469 432.86387791624384 1225.516930781399 432.86387791624384ZM1251.4558319048317 441.79745407301766L1249.8372781070161 430.04717390446103Q1245.8434440604585 436.1850662286445 1239.1800472564648 439.8005370497388Q1232.5376706316636 443.41600787083314 1224.339800746624 443.41600787083314L1224.339800746624 443.41600787083314Q1208.301404022816 443.41600787083314 1199.199666432503 432.0020505693551Q1190.1189490213824 420.588093267877 1190.1189490213824 400.9342257229747L1190.1189490213824 400.9342257229747Q1190.1189490213824 382.16320570415354 1199.3468076868498 370.6021071483286Q1208.5956865315097 359.0199884133113 1224.1085787755076 359.0199884133113L1224.1085787755076 359.0199884133113Q1232.1593074062002 359.0199884133113 1239.3061683316193 362.5303583384436Q1246.4320090778458 366.0407282635759 1249.9844193613628 371.9684187958352L1249.9844193613628 371.9684187958352L1249.7531973902464 364.9476789455706L1249.7531973902464 329.25541467686025L1261.9449013218436 328.519708405126L1261.9449013218436 441.79745407301766L1251.4558319048317 441.79745407301766ZM1407.6778036628145 332.49252227249127L1407.6778036628145 441.79745407301766L1394.89753471383 441.79745407301766L1394.89753471383 390.65535809788673L1336.2091944086244 390.65535809788673L1336.2091944086244 441.79745407301766L1323.4289254596397 441.79745407301766L1323.4289254596397 332.49252227249127L1336.2091944086244 332.49252227249127L1336.2091944086244 379.43058240914036L1394.89753471383 379.43058240914036L1394.89753471383 332.49252227249127L1407.6778036628145 332.49252227249127ZM1440.1119401567018 401.43871002359253L1440.1119401567018 401.43871002359253Q1440.1119401567018 415.85855294958503 1446.502074631194 424.53988695604994Q1452.9132292848788 433.2212209625148 1465.1679937540532 433.2212209625148L1465.1679937540532 433.2212209625148Q1477.2966371480732 433.2212209625148 1483.4555496514488 424.5819273144347Q1489.635482334017 415.94263366635465 1489.635482334017 401.29156876924566L1489.635482334017 401.29156876924566Q1489.635482334017 386.45132225940495 1483.5396303682185 377.9171295072869Q1477.4437784024199 369.3829367551689 1464.957791962129 369.3829367551689L1464.957791962129 369.3829367551689Q1452.829148568109 369.3829367551689 1446.4810544520017 378.10631112001863Q1440.1119401567018 386.8086653056759 1440.1119401567018 401.43871002359253ZM1502.4157512830018 401.2285082316684L1502.4157512830018 401.2285082316684Q1502.4157512830018 420.0625887880668 1492.3681056290302 431.791848777431Q1482.3204599750586 443.50008858760276 1464.5794287366655 443.50008858760276L1464.5794287366655 443.50008858760276Q1447.5110432324298 443.50008858760276 1437.4213572200733 431.6657277022765Q1427.331671207717 419.85238699614274 1427.331671207717 401.29156876924566L1427.331671207717 401.29156876924566Q1427.331671207717 382.3734074960776 1437.4633975784582 370.70720804429067Q1447.5741037700068 359.0199884133113 1465.252074470823 359.0199884133113L1465.252074470823 359.0199884133113Q1482.6147424837525 359.0199884133113 1492.5152468833771 370.7492484026755Q1502.4157512830018 382.45748821284724 1502.4157512830018 401.2285082316684Z " fill="#000000" transform="matrix(0.5823953930097766,0,0,0.5823953930097765,0,64.99198299092564)"/></g></svg>